# Blender v2.79 (sub 0) OBJ File: 'untitled.blend'
# www.blender.org
mtllib untitled.mtl
o Cylinder
v 0.188481 0.319085 0.849361
v 0.165377 0.324015 -0.942387
v 0.183956 0.346920 0.849495
v 0.160851 0.351850 -0.942252
v 0.174087 0.373336 0.849695
v 0.150983 0.378266 -0.942052
v 0.159254 0.397319 0.849953
v 0.136150 0.402249 -0.941795
v 0.140028 0.417947 0.850257
v 0.116924 0.422877 -0.941490
v 0.117148 0.434428 0.850598
v 0.094044 0.439358 -0.941150
v 0.091492 0.446127 0.850961
v 0.068388 0.451057 -0.940786
v 0.064046 0.452596 0.851332
v 0.040942 0.457526 -0.940415
v 0.035866 0.453586 0.851699
v 0.012762 0.458516 -0.940049
v 0.008033 0.449059 0.852045
v -0.015071 0.453989 -0.939702
v -0.018381 0.439189 0.852358
v -0.041485 0.444118 -0.939389
v -0.042363 0.424354 0.852627
v -0.065467 0.429284 -0.939120
v -0.062990 0.405126 0.852840
v -0.086094 0.410056 -0.938907
v -0.079470 0.382243 0.852989
v -0.102574 0.387173 -0.938758
v -0.091170 0.356584 0.853070
v -0.114274 0.361514 -0.938677
v -0.097639 0.329136 0.853078
v -0.120743 0.334066 -0.938670
v -0.098630 0.300954 0.853013
v -0.121734 0.305883 -0.938734
v -0.094104 0.273119 0.852878
v -0.117208 0.278049 -0.938869
v -0.084235 0.246703 0.852678
v -0.107339 0.251633 -0.939069
v -0.069403 0.222720 0.852421
v -0.092507 0.227650 -0.939326
v -0.050177 0.202092 0.852116
v -0.073281 0.207022 -0.939631
v -0.027296 0.185611 0.851776
v -0.050400 0.190541 -0.939972
v -0.001640 0.173912 0.851413
v -0.024744 0.178842 -0.940335
v 0.025806 0.167443 0.851041
v 0.002702 0.172373 -0.940706
v 0.053986 0.166453 0.850675
v 0.030882 0.171383 -0.941072
v 0.081818 0.170980 0.850328
v 0.058714 0.175910 -0.941419
v 0.108233 0.180851 0.850015
v 0.085129 0.185780 -0.941732
v 0.132214 0.195685 0.849747
v 0.109110 0.200615 -0.942001
v 0.152842 0.214913 0.849533
v 0.129737 0.219843 -0.942214
v 0.169322 0.237796 0.849384
v 0.146218 0.242726 -0.942363
v 0.181021 0.263455 0.849304
v 0.157917 0.268385 -0.942444
v 0.187491 0.290903 0.849296
v 0.164387 0.295833 -0.942451
vn 0.9870 0.1605 -0.0123
vn 0.9367 0.3500 -0.0111
vn 0.8504 0.5260 -0.0095
vn 0.7315 0.6818 -0.0076
vn 0.5844 0.8115 -0.0053
vn 0.4149 0.9099 -0.0028
vn 0.2294 0.9733 -0.0003
vn 0.0351 0.9994 0.0023
vn -0.1605 0.9870 0.0048
vn -0.3500 0.9367 0.0071
vn -0.5260 0.8505 0.0091
vn -0.6818 0.7315 0.0108
vn -0.8114 0.5844 0.0121
vn -0.9098 0.4149 0.0129
vn -0.9732 0.2294 0.0132
vn -0.9993 0.0351 0.0130
vn -0.9870 -0.1605 0.0123
vn -0.9367 -0.3500 0.0111
vn -0.8504 -0.5260 0.0095
vn -0.7315 -0.6818 0.0076
vn -0.5844 -0.8115 0.0053
vn -0.4149 -0.9099 0.0028
vn -0.2294 -0.9733 0.0003
vn -0.0351 -0.9994 -0.0023
vn 0.1605 -0.9870 -0.0048
vn 0.3500 -0.9367 -0.0071
vn 0.5260 -0.8505 -0.0091
vn 0.6818 -0.7315 -0.0108
vn 0.8114 -0.5844 -0.0121
vn 0.9098 -0.4149 -0.0129
vn -0.0129 0.0028 -0.9999
vn 0.9732 -0.2294 -0.0132
vn 0.9993 -0.0351 -0.0130
vn 0.0129 -0.0028 0.9999
usemtl None
s off
f 1//1 2//1 4//1 3//1
f 3//2 4//2 6//2 5//2
f 5//3 6//3 8//3 7//3
f 7//4 8//4 10//4 9//4
f 9//5 10//5 12//5 11//5
f 11//6 12//6 14//6 13//6
f 13//7 14//7 16//7 15//7
f 15//8 16//8 18//8 17//8
f 17//9 18//9 20//9 19//9
f 19//10 20//10 22//10 21//10
f 21//11 22//11 24//11 23//11
f 23//12 24//12 26//12 25//12
f 25//13 26//13 28//13 27//13
f 27//14 28//14 30//14 29//14
f 29//15 30//15 32//15 31//15
f 31//16 32//16 34//16 33//16
f 33//17 34//17 36//17 35//17
f 35//18 36//18 38//18 37//18
f 37//19 38//19 40//19 39//19
f 39//20 40//20 42//20 41//20
f 41//21 42//21 44//21 43//21
f 43//22 44//22 46//22 45//22
f 45//23 46//23 48//23 47//23
f 47//24 48//24 50//24 49//24
f 49//25 50//25 52//25 51//25
f 51//26 52//26 54//26 53//26
f 53//27 54//27 56//27 55//27
f 55//28 56//28 58//28 57//28
f 57//29 58//29 60//29 59//29
f 59//30 60//30 62//30 61//30
f 4//31 2//31 64//31 62//31 60//31 58//31 56//31 54//31 52//31 50//31 48//31 46//31 44//31 42//31 40//31 38//31 36//31 34//31 32//31 30//31 28//31 26//31 24//31 22//31 20//31 18//31 16//31 14//31 12//31 10//31 8//31 6//31
f 61//32 62//32 64//32 63//32
f 63//33 64//33 2//33 1//33
f 1//34 3//34 5//34 7//34 9//34 11//34 13//34 15//34 17//34 19//34 21//34 23//34 25//34 27//34 29//34 31//34 33//34 35//34 37//34 39//34 41//34 43//34 45//34 47//34 49//34 51//34 53//34 55//34 57//34 59//34 61//34 63//34
